# xmcd CD database file
#
# Track frame offsets:
#	182
#	7577
#	25515
#	59467
#	76202
#	82727
#	115342
#	131150
#	146162
#	172350
#	180627
#	205340
#	213270
#	247515
#	261410
#	267022
#	278807
#	305235
#
# Disc length: 4120 seconds
#
# Revision: 0
# Processed by: cddbd v1.5PL3 Copyright (c) Steve Scherf et al.
# Submitted via: CDex 1.51
#
DISCID=f8101612
DTITLE=Hampster - Syzygy
DYEAR=1995
DGENRE=New Age
TTITLE0=HempRats
TTITLE1=Sally The LobsterCat
TTITLE2=Gorgonzola
TTITLE3=Magoomba Berries
TTITLE4=Cydonia
TTITLE5=Fifi
TTITLE6=One to the Next
TTITLE7=Teleconned
TTITLE8=Hampstercorp
TTITLE9=Daellang/Fuzzy Logic
TTITLE10=Falling Into Eyes
TTITLE11=Amsterdam
TTITLE12=Dusky Sound
TTITLE13=Quaff
TTITLE14=Squiggly
TTITLE15=Suslik
TTITLE16=Resurgence
TTITLE17=Bedtime Story #2
EXTD=YEAR: 1995
EXTT0=
EXTT1=
EXTT2=
EXTT3=
EXTT4=
EXTT5=
EXTT6=
EXTT7=
EXTT8=
EXTT9=
EXTT10=
EXTT11=
EXTT12=
EXTT13=
EXTT14=
EXTT15=
EXTT16=
EXTT17=
PLAYORDER=
